PathFileType	4	(X/Y/Z)	S01_Demo_SingleTrial_0-100.trc
DataRate	CameraRate	NumFrames	NumMarkers	Units	OrigDataRate	OrigDataStartFrame	OrigNumFrames
60	60	7	21	m	60	50	100
Frame#	Time	RHip			RKnee			RAnkle			RBigToe			RSmallToe			RHeel			LHip			LKnee			LAnkle			LBigToe			LSmallToe			LHeel			Neck			Head			Nose			RShoulder			RElbow			RWrist			LShoulder			LElbow			LWrist		
		X1	Y1	Z1	X2	Y2	Z2	X3	Y3	Z3	X4	Y4	Z4	X5	Y5	Z5	X6	Y6	Z6	X7	Y7	Z7	X8	Y8	Z8	X9	Y9	Z9	X10	Y10	Z10	X11	Y11	Z11	X12	Y12	Z12	X13	Y13	Z13	X14	Y14	Z14	X15	Y15	Z15	X16	Y16	Z16	X17	Y17	Z17	X18	Y18	Z18	X19	Y19	Z19	X20	Y20	Z20	X21	Y21	Z21
51	0.85	-0.22545760407279666	0.9985614608815321	-1.0318206226754345	-0.5236546375736639	0.7550163904319964	-0.8501828598786333	-0.792291645442807	0.44897220947928806	-0.8878991224614501	-0.832543922261407	0.4123823573642609	-0.7241571029095951	-0.8814079053864996	0.45784355066396654	-0.7361500972673499	-0.8152661533312578	0.3974039543136404	-0.8869850300499312	-0.05373109510831057	0.892039913371895	-0.991274387788693	-0.07696224435354317	0.5164506673854076	-0.9049968993714926	-0.014552869684667447	0.1540096288197787	-1.1246548161724028	-0.011310005212256327	0.08284538563622235	-1.0027286541323381	0.025000394150134216	0.08932071721158621	-1.014069581021654	-0.005885909173892327	0.12339598190144485	-1.1779168479694209	0.24537912110369467	1.3129743279418629	-0.9541391565063473	0.43842238433034547	1.4794136677548926	-0.8170632779579244	0.33185977524857035	1.3485543372750783	-0.8005968876946258	0.1000515429664027	1.409299052542979	-0.9677699064452203	-0.1540843420483676	1.5050271893574183	-0.9732690806734448	-0.08070149335902088	1.6532236055147127	-0.7901151769170942	0.32848790679843565	1.1823919626321389	-1.022499091439118	0.3851361382350441	0.8882470652671376	-1.0639553616322197	0.4118581958790705	0.6477549741635648	-0.9794320211527643
52	0.8666666666666667	-0.22319260140789934	1.000688577102945	-1.0133521630049813	-0.5189704398578596	0.7541546144234478	-0.8414845960269975	-0.782911697827011	0.44575379950588423	-0.874946245791396	-0.8260946573523468	0.4029847498675287	-0.732176349587276	-0.8729235941715484	0.44834341249058474	-0.7413048447534982	-0.8077220163578904	0.3927440640211414	-0.8750113302766316	-0.05251073873868437	0.8942236592032698	-0.986011780805635	-0.07679420604100178	0.5178729582281123	-0.9063131681676463	-0.013838033538497118	0.15498459652027266	-1.1229848630758346	-0.01160376622624134	0.08387246122424291	-1.0018894489777124	0.02526211316880777	0.09107223455055448	-1.0121540848907775	-0.004804709477738478	0.12347142160361672	-1.1757413801973284	0.24388901835781251	1.313962124876327	-0.9505229031456606	0.436761112224705	1.4791652779024047	-0.8111890620258322	0.3301627491508757	1.3474258145912512	-0.7947594838882845	0.09992783588439608	1.4120943999359872	-0.9552688746304722	-0.15663456385456898	1.5074369145815338	-0.9564941712731075	-0.07212689547827501	1.6498390699710692	-0.777069297502065	0.3303083744185923	1.1846020767806442	-1.0111144077072838	0.38553381618079574	0.8896170307310348	-1.0622247305417607	0.415793319920463	0.6496009428123429	-0.9754205894939345
53	0.8833333333333333	-0.222343186486678	1.0022301351077363	-1.0011021437745644	-0.5132723174525573	0.75168504824328	-0.8331782798072083	-0.7707912214694121	0.43987737029846685	-0.8646206279774912	-0.8181087807365535	0.3914464978493626	-0.7437176165777482	-0.8594185419967509	0.4319931768387994	-0.7542732726638692	-0.7972555818886196	0.39107941070165864	-0.8741024598262475	-0.053021000323673885	0.894999786218835	-0.9947582153734585	-0.07609679957566536	0.5191739352013554	-0.9079860282422603	-0.012866818257604478	0.15461447968373523	-1.1245825234865363	-0.01118302518240505	0.08433328153219173	-1.0007491551049137	0.025407130497885837	0.0917384847535825	-1.0127914539213163	-0.0036983890609324265	0.12253082678099625	-1.1769497182955755	0.24134530272668073	1.3148471379166633	-0.9496672321047638	0.43351087300796326	1.4795284794381516	-0.8038595759758498	0.327921470717828	1.346735354994054	-0.7888752605493714	0.09859664370790613	1.4147986042879392	-0.9464913772128335	-0.15986000520114338	1.5087081803576115	-0.9435728658268763	-0.06586152477511399	1.6457260847496455	-0.7668394144397307	0.32929621097989764	1.1865101704719478	-1.0084172193831507	0.3862332843448922	0.8913144554835757	-1.0607206132315248	0.41956833679299466	0.6511935656973938	-0.9710775267405924
54	0.9	-0.22235413277929417	1.0032446557121983	-0.9938421160241563	-0.5062161676586776	0.7478639038455197	-0.8242725696109695	-0.755030368266985	0.4310287918742511	-0.855978648464902	-0.8053745783792806	0.37762010494009396	-0.7543801564238213	-0.8407419107705819	0.4108282344681516	-0.7698408925275617	-0.7833769753505667	0.38962173688285007	-0.8795499520949915	-0.055590726874673174	0.8956585045935879	-1.0118582659311726	-0.0750925129661272	0.5202666989280208	-0.9100941998836899	-0.011892925262662278	0.1533956581569835	-1.1284866814767893	-0.01016672829533371	0.08442124498394674	-0.9994037715580752	0.025426675242760752	0.09158634849951897	-1.0151994739764028	-0.0026827229147340036	0.12103050947561753	-1.1804206285286076	0.23870193398379005	1.315748550349036	-0.949315864642416	0.42817006146923214	1.4801371772266716	-0.79359116684623	0.324824772587431	1.346348934523243	-0.7821724420598197	0.09630010411101131	1.4174280204492875	-0.9406870213121287	-0.163353706776472	1.508932076803447	-0.9334091643213736	-0.06198689956114713	1.641143774804385	-0.7587688223727094	0.32663192635706023	1.1882442922367802	-1.0107671027991612	0.38695618929903824	0.8940193149379021	-1.0578572142115208	0.42298552145426305	0.6534397303046631	-0.965931729311121
55	0.9166666666666666	-0.22263262699821146	1.0038537151977902	-0.9900191953656914	-0.4974789265202989	0.7430077352880792	-0.814258850660519	-0.7342916467093835	0.4192363524676501	-0.8474027128217073	-0.7836734125963469	0.3616633242906352	-0.75805220905125	-0.816699420520703	0.3864674516266539	-0.783711821010745	-0.7655236142569157	0.3851650829329901	-0.8852676064908167	-0.05958581131188962	0.8968221469799592	-1.0326083832740034	-0.07399139478122473	0.5211283270236692	-0.9125376602799959	-0.011168175049290236	0.15178798548421663	-1.133571372722507	-0.008827291196467423	0.08432878389603737	-0.9981425192142448	0.02535560542619158	0.09091714952256617	-1.0184694886455394	-0.001908581727388429	0.11935288018511206	-1.184840213666338	0.2364065624687207	1.3165263912754512	-0.9478625643086674	0.4202645677055878	1.4805819798349438	-0.7795741729858556	0.3204980739582468	1.3462714664430067	-0.7739610595518092	0.09352077746430755	1.4199001753688658	-0.9359268594914857	-0.16686458781788416	1.5084102545855234	-0.9246824368504717	-0.060299705004643135	1.6361472015626106	-0.751499595523731	0.3236187877438084	1.190097880204039	-1.0144403307348568	0.3875010589995652	0.8983811125861114	-1.0522100517660145	0.42592014659328464	0.6569715451883894	-0.9601766105989485
56	0.9333333333333332	-0.22282333031379478	1.0042041402111936	-0.988083428690616	-0.48679452694308845	0.7374002344372869	-0.8033271143640157	-0.7074141889233047	0.4048650076461632	-0.8375927859398961	-0.749892519683866	0.34380937571065096	-0.7505137473119269	-0.7870488238080156	0.3602239537645112	-0.7924403104041096	-0.7430560164230181	0.376309297793591	-0.887248588956815	-0.06394490044151317	0.8984411997109404	-1.0540726735951627	-0.07296312728685023	0.5218479239271316	-0.9150167343172786	-0.010916010000598931	0.15001461297605234	-1.139014665609633	-0.007525027520474526	0.08412136986615852	-0.9972544052213403	0.025188983009259033	0.08986487914924532	-1.0219943511483527	-0.001575879759108499	0.11765056197386249	-1.1893831201007534	0.23380241978485267	1.3166292263844455	-0.9459190919141027	0.4099083174992784	1.4805500396706677	-0.7621223915238222	0.31467141047410724	1.3466221779083452	-0.7639762998141015	0.0907674742611051	1.4221675511556646	-0.9300391643251534	-0.17021127568886063	1.5074719758092576	-0.9163734539394649	-0.06036801273738713	1.6306129231143478	-0.7437350820592985	0.32103349589750896	1.1923326088580302	-1.0172005759091727	0.3879459553185984	0.9045608605800111	-1.0435159971194923	0.42832014258195733	0.6617354029501614	-0.9546877225565411
57	0.95	-0.22288804032749768	1.0044592150759997	-0.9866340663306956	-0.4740051293747084	0.7312216000963675	-0.7923339768900561	-0.6741925678922117	0.3883187283193462	-0.8264184069225912	-0.703921712949175	0.32449174368463524	-0.7316223008806606	-0.7519606385936896	0.33339437016382945	-0.7941143752403476	-0.713744078749763	0.3627914197325789	-0.8837291289413307	-0.06763550607205422	0.900416412964779	-1.0727292974552467	-0.07207731806529018	0.5225693851609831	-0.9172228031937625	-0.011264585884298083	0.14820272603742446	-1.144134724170874	-0.006653886254533607	0.08379132926905229	-0.9967398895358178	0.02481340023435122	0.08846192745268354	-1.0252282697219988	-0.0018501897118147282	0.11587326261184511	-1.19353573034093	0.22980356185376805	1.3156712718950245	-0.9446670230291984	0.3982250001721898	1.4801929747574325	-0.7427757690423173	0.30722318374190694	1.3474264726682927	-0.7522957219202775	0.08809113290845631	1.4243373513559134	-0.9221123000380277	-0.17327467637042182	1.5062807915597065	-0.9079282580768233	-0.061647672864809364	1.6245366758152888	-0.7345942246720454	0.3193302699967942	1.195077294429071	-1.0172954981881555	0.3885521768121198	0.9120404090021288	-1.0328681762142449	0.4302969751831597	0.6674310773200001	-0.9497003059152042
